<?xml version="1.0" encoding="UTF-8" standalone="no"?>
<svg
   id="visual"
   viewBox="0 0 960 540"
   width="960"
   height="540"
   version="1.1"
   sodipodi:docname="waves-bg.svg"
   inkscape:export-filename="waves-bg.png"
   inkscape:export-xdpi="190.711"
   inkscape:export-ydpi="190.711"
   inkscape:version="1.4 (e7c3feb100, 2024-10-09)"
   xmlns:inkscape="http://www.inkscape.org/namespaces/inkscape"
   xmlns:sodipodi="http://sodipodi.sourceforge.net/DTD/sodipodi-0.dtd"
   xmlns="http://www.w3.org/2000/svg"
   xmlns:svg="http://www.w3.org/2000/svg">
  <defs
     id="defs5" />
  <sodipodi:namedview
     id="namedview5"
     pagecolor="#ffffff"
     bordercolor="#666666"
     borderopacity="1.0"
     inkscape:showpageshadow="2"
     inkscape:pageopacity="0.0"
     inkscape:pagecheckerboard="0"
     inkscape:deskcolor="#d1d1d1"
     inkscape:zoom="0.89345888"
     inkscape:cx="356.47975"
     inkscape:cy="409.64392"
     inkscape:window-width="1920"
     inkscape:window-height="1020"
     inkscape:window-x="0"
     inkscape:window-y="0"
     inkscape:window-maximized="1"
     inkscape:current-layer="visual" />
  <path
     d="M0 523L22.8 523C45.7 523 91.3 523 137 518C182.7 513 228.3 503 274 501C319.7 499 365.3 505 411.2 507.2C457 509.3 503 507.7 548.8 505C594.7 502.3 640.3 498.7 686 500.3C731.7 502 777.3 509 823 512.3C868.7 515.7 914.3 515.3 937.2 515.2L960 515L960 541L937.2 541C914.3 541 868.7 541 823 541C777.3 541 731.7 541 686 541C640.3 541 594.7 541 548.8 541C503 541 457 541 411.2 541C365.3 541 319.7 541 274 541C228.3 541 182.7 541 137 541C91.3 541 45.7 541 22.8 541L0 541Z"
     fill="#061a27"
     id="path1" />
  <path
     d="M0 522L22.8 518.3C45.7 514.7 91.3 507.3 137 507C182.7 506.7 228.3 513.3 274 515.2C319.7 517 365.3 514 411.2 513C457 512 503 513 548.8 513C594.7 513 640.3 512 686 509.3C731.7 506.7 777.3 502.3 823 500.5C868.7 498.7 914.3 499.3 937.2 499.7L960 500L960 541L937.2 541C914.3 541 868.7 541 823 541C777.3 541 731.7 541 686 541C640.3 541 594.7 541 548.8 541C503 541 457 541 411.2 541C365.3 541 319.7 541 274 541C228.3 541 182.7 541 137 541C91.3 541 45.7 541 22.8 541L0 541Z"
     fill="#01242f"
     id="path2" />
  <path
     d="M0 511L22.8 512.8C45.7 514.7 91.3 518.3 137 519.8C182.7 521.3 228.3 520.7 274 520.5C319.7 520.3 365.3 520.7 411.2 520.2C457 519.7 503 518.3 548.8 516.5C594.7 514.7 640.3 512.3 686 511.5C731.7 510.7 777.3 511.3 823 513.5C868.7 515.7 914.3 519.3 937.2 521.2L960 523L960 541L937.2 541C914.3 541 868.7 541 823 541C777.3 541 731.7 541 686 541C640.3 541 594.7 541 548.8 541C503 541 457 541 411.2 541C365.3 541 319.7 541 274 541C228.3 541 182.7 541 137 541C91.3 541 45.7 541 22.8 541L0 541Z"
     fill="#002e33"
     id="path3" />
  <path
     d="M0 520L22.8 519.8C45.7 519.7 91.3 519.3 137 519C182.7 518.7 228.3 518.3 274 520.7C319.7 523 365.3 528 411.2 529.7C457 531.3 503 529.7 548.8 527C594.7 524.3 640.3 520.7 686 520.8C731.7 521 777.3 525 823 526C868.7 527 914.3 525 937.2 524L960 523L960 541L937.2 541C914.3 541 868.7 541 823 541C777.3 541 731.7 541 686 541C640.3 541 594.7 541 548.8 541C503 541 457 541 411.2 541C365.3 541 319.7 541 274 541C228.3 541 182.7 541 137 541C91.3 541 45.7 541 22.8 541L0 541Z"
     fill="#033733"
     id="path4" />
  <path
     d="M0 531L22.8 531.5C45.7 532 91.3 533 137 532.2C182.7 531.3 228.3 528.7 274 526.8C319.7 525 365.3 524 411.2 525.3C457 526.7 503 530.3 548.8 532.3C594.7 534.3 640.3 534.7 686 534.8C731.7 535 777.3 535 823 533.2C868.7 531.3 914.3 527.7 937.2 525.8L960 524L960 541L937.2 541C914.3 541 868.7 541 823 541C777.3 541 731.7 541 686 541C640.3 541 594.7 541 548.8 541C503 541 457 541 411.2 541C365.3 541 319.7 541 274 541C228.3 541 182.7 541 137 541C91.3 541 45.7 541 22.8 541L0 541Z"
     fill="#164030"
     id="path5" />
</svg>
